<?xml version="1.0" encoding="UTF-8"?>
<svg width="309px" height="322px" viewBox="0 0 309 322" version="1.1" xmlns="http://www.w3.org/2000/svg" xmlns:xlink="http://www.w3.org/1999/xlink">
    <!-- Generator: Sketch 52.2 (67145) - http://www.bohemiancoding.com/sketch -->
    <title>CZI_Patterns-16</title>
    <desc>Created with Sketch.</desc>
    <defs>
        <polygon id="path-1" points="404.60998 0 510 459 0 459"></polygon>
    </defs>
    <g id="Symbols" stroke="none" stroke-width="1" fill="none" fill-rule="evenodd" opacity="0.249832589">
        <g id="nav-/-desktop-/-about" transform="translate(0.000000, -182.000000)">
            <g id="Group" transform="translate(0.000000, 144.000000)">
                <g id="patternRight" transform="translate(168.000000, 180.000000) scale(-1, 1) translate(-168.000000, -180.000000) ">
                    <g id="Screen-Shot-2018-08-01-at-3.33.26-PM-Copy" transform="translate(279.000000, 133.500000) scale(-1, 1) translate(-279.000000, -133.500000) translate(24.000000, -96.000000)">
                        <g id="CZI_Patterns-16">
                            <mask id="mask-2" fill="white">
                                <use xlink:href="#path-1"></use>
                            </mask>
                            <use id="Mask" fill-opacity="0" fill="#FF414B" fill-rule="nonzero" xlink:href="#path-1"></use>
                            <g mask="url(#mask-2)" stroke="#FECA5D" stroke-linecap="round">
                                <g transform="translate(195.275001, -477.708328)">
                                    <path d="M31.2013819,0.87322827 L0,934.612763" id="Shape"></path>
                                    <path d="M62.404605,52.7495174 L0,934.612763" id="Shape"></path>
                                    <path d="M93.6059869,104.622746 L0,934.612763" id="Shape"></path>
                                    <path d="M124.807369,156.495974 L0,934.612763" id="Shape"></path>
                                    <path d="M156.010592,208.372263 L0,934.612763" id="Shape"></path>
                                    <path d="M187.211974,260.245491 L0,934.612763" id="Shape"></path>
                                    <path d="M111.496057,619.524118 L0,934.612763" id="Shape"></path>
                                    <path d="M137.932342,616.839907 L0,934.612763" id="Shape"></path>
                                    <path d="M175.383746,615.94517 L0,934.612763" id="Shape"></path>
                                    <path d="M218.342709,619.524118 L0,934.612763" id="Shape"></path>
                                    <path d="M343.222566,519.617755 L0,934.612763" id="Shape"></path>
                                    <path d="M374.423947,571.490983 L0,934.612763" id="Shape"></path>
                                    <path d="M405.627171,623.367272 L0,934.612763" id="Shape"></path>
                                    <path d="M436.828552,675.2405 L0,934.612763" id="Shape"></path>
                                    <path d="M468.031775,727.11679 L0,934.612763" id="Shape"></path>
                                    <path d="M499.233157,778.990018 L0,934.612763" id="Shape"></path>
                                    <path d="M530.434539,830.863246 L0,934.612763" id="Shape"></path>
                                    <path d="M317.478778,898.682012 L0,934.612763" id="Shape-Copy"></path>
                                    <path d="M315.275755,918.366223 L0,934.612763" id="Shape-Copy-2"></path>
                                </g>
                            </g>
                        </g>
                    </g>
                </g>
            </g>
        </g>
    </g>
</svg>